<svg width="76" height="76" viewBox="0 0 76 76" fill="none" xmlns="http://www.w3.org/2000/svg">
<g id="Group ">
<circle id="Ellipse 179" cx="38" cy="38" r="38" fill="#02A8D7" fill-opacity="0.3"/>
<g id="Group">
<path id="Vector" d="M49.3812 43.8349C49.4445 43.5096 49.4237 43.1393 49.3167 42.754C48.6153 40.2275 46.5165 35.0545 44.7724 32.924C44.3148 32.3649 43.4331 32.4132 42.9219 32.924C42.697 33.149 42.5721 33.4355 42.5454 33.7294C42.4085 33.6027 42.2348 33.5153 42.0432 33.4903C42.0432 33.4903 37.6197 32.9391 37.566 32.9461H35.5544C34.8989 32.9461 34.707 33.3262 34.707 33.7934V40.2511H33.2307V33.326C33.2307 32.9834 32.9519 32.7046 32.6093 32.7046H26.6214C26.2788 32.7046 26 32.9834 26 33.326C26 33.326 26.0021 43.0502 26.0021 43.6792C26.0021 44.4018 26.5879 44.9875 27.3104 44.9875H28.5941C28.5278 45.2575 28.4919 45.5395 28.4919 45.8297C28.4919 47.7788 30.0779 49.3644 32.0273 49.3644C33.9765 49.3644 35.5624 47.7788 35.5624 45.8297C35.5624 45.5395 35.5265 45.2575 35.4602 44.9875H39.4168V45.8542C39.4168 46.5395 39.9743 47.097 40.6595 47.097H40.6833C41.0147 47.097 41.3259 46.9671 41.5594 46.7312C41.7929 46.4952 41.9196 46.1828 41.9163 45.8514L41.9075 44.9875H43.0317C42.9654 45.2575 42.9295 45.5395 42.9295 45.8297C42.9295 47.7788 44.5155 49.3644 46.4649 49.3644C48.4141 49.3644 50 47.7788 50 45.8297C49.9999 45.0901 49.7711 44.4031 49.3812 43.8349ZM46.4648 44.4956C47.2004 44.4956 47.7988 45.0941 47.7988 45.8297C47.7988 46.5653 47.2004 47.1638 46.4648 47.1638C45.7289 47.1638 45.1302 46.5653 45.1302 45.8297C45.1302 45.0941 45.7288 44.4956 46.4648 44.4956ZM33.3613 45.8297C33.3613 46.5653 32.7628 47.1638 32.0272 47.1638C31.2913 47.1638 30.6927 46.5653 30.6927 45.8297C30.6927 45.0941 31.2913 44.4956 32.0272 44.4956C32.7628 44.4956 33.3613 45.0941 33.3613 45.8297ZM41.8609 40.4415C41.8539 39.7579 41.292 39.2017 40.6084 39.2017H38.5405V34.979L39.5516 35.1033C39.6339 35.4814 39.9702 35.7648 40.3729 35.7648H43.9124L44.1868 38.0505L41.8675 41.087L41.8609 40.4415Z" fill="#02A8D7"/>
<path id="Vector_2" d="M36.3167 31.9711C37.6873 31.9711 38.8023 30.8561 38.8023 29.4854C38.8023 29.3112 38.7841 29.1411 38.7498 28.9768L39.2951 28.9661C39.62 28.9596 39.9702 28.7335 40.1097 28.4399L40.2926 28.055C40.3795 27.8721 40.375 27.6812 40.2801 27.5311C40.1853 27.3811 40.015 27.2951 39.8111 27.2951L37.5006 27.3005C37.1484 27.1089 36.745 27 36.3167 27C34.9461 27 33.8311 28.115 33.8311 29.4856C33.8311 30.8561 34.9461 31.9711 36.3167 31.9711Z" fill="#02A8D7"/>
</g>
</g>
</svg>
