<svg width="76" height="76" viewBox="0 0 76 76" fill="none" xmlns="http://www.w3.org/2000/svg">
<g id="Group ">
<circle id="Ellipse 179" cx="38" cy="38" r="38" fill="#02A8D7" fill-opacity="0.3"/>
<g id="Group">
<path id="Vector" d="M33.1925 41.1052H32.3079V42.8745H33.1925C33.6803 42.8745 34.0772 42.4776 34.0772 41.9898C34.0772 41.5021 33.6803 41.1052 33.1925 41.1052Z" fill="#02A8D7"/>
<path id="Vector_2" d="M44.6925 23.5183V28.3078H49.482L44.6925 23.5183Z" fill="#02A8D7"/>
<path id="Vector_3" d="M43.8077 30.0769C43.3191 30.0769 42.9231 29.6809 42.9231 29.1923V23H27.8846C27.3961 23 27 23.3961 27 23.8846V52.3103C27 52.7988 27.3961 53.1949 27.8846 53.1949H49.1154C49.6039 53.1949 50 52.7988 50 52.3103V30.0769H43.8077ZM31.4231 28.3077H40.2692C40.7578 28.3077 41.1538 28.7038 41.1538 29.1923C41.1538 29.6809 40.7578 30.0769 40.2692 30.0769H31.4231C30.9345 30.0769 30.5385 29.6809 30.5385 29.1923C30.5385 28.7038 30.9345 28.3077 31.4231 28.3077ZM38.2367 48.0241C38.5822 48.3695 38.5822 48.9297 38.2367 49.2751C37.8911 49.6206 37.3311 49.6206 36.9857 49.2751L36.0526 48.342L35.1133 49.2813C34.7678 49.6267 34.2078 49.6267 33.8623 49.2813C33.5168 48.9359 33.5168 48.3757 33.8623 48.0303L34.8015 47.091L32.3541 44.6436H32.3077V46.8846C32.3077 47.3731 31.9116 47.7692 31.4231 47.7692C30.9345 47.7692 30.5385 47.3731 30.5385 46.8846C30.5385 46.1361 30.5385 40.892 30.5385 40.2205C30.5385 39.732 30.9345 39.3359 31.4231 39.3359H33.1923C34.6556 39.3359 35.8462 40.5264 35.8462 41.9897C35.8462 42.9751 35.3059 43.8362 34.5065 44.2939L36.0526 45.84L36.9899 44.9027C37.3353 44.5573 37.8955 44.5573 38.2409 44.9027C38.5864 45.2481 38.5864 45.8082 38.2409 46.1537L37.3036 47.091L38.2367 48.0241ZM45.5769 44.2308H40.2692C39.7807 44.2308 39.3846 43.8347 39.3846 43.3462C39.3846 42.8576 39.7807 42.4615 40.2692 42.4615H45.5769C46.0655 42.4615 46.4615 42.8576 46.4615 43.3462C46.4615 43.8347 46.0655 44.2308 45.5769 44.2308ZM45.5769 40.6923H40.2692C39.7807 40.6923 39.3846 40.2962 39.3846 39.8077C39.3846 39.3191 39.7807 38.9231 40.2692 38.9231H45.5769C46.0655 38.9231 46.4615 39.3191 46.4615 39.8077C46.4615 40.2962 46.0655 40.6923 45.5769 40.6923ZM45.5769 37.1538H31.4231C30.9345 37.1538 30.5385 36.7578 30.5385 36.2692C30.5385 35.7807 30.9345 35.3846 31.4231 35.3846H45.5769C46.0655 35.3846 46.4615 35.7807 46.4615 36.2692C46.4615 36.7578 46.0655 37.1538 45.5769 37.1538ZM45.5769 33.6154H31.4231C30.9345 33.6154 30.5385 33.2193 30.5385 32.7308C30.5385 32.2422 30.9345 31.8462 31.4231 31.8462H45.5769C46.0655 31.8462 46.4615 32.2422 46.4615 32.7308C46.4615 33.2193 46.0655 33.6154 45.5769 33.6154Z" fill="#02A8D7"/>
</g>
</g>
</svg>
