<?xml version="1.0" encoding="utf-8"?>
<!-- Generator: Adobe Illustrator 26.0.3, SVG Export Plug-In . SVG Version: 6.00 Build 0)  -->
<svg version="1.1" id="Capa_1" xmlns="http://www.w3.org/2000/svg" xmlns:xlink="http://www.w3.org/1999/xlink" x="0px" y="0px"
	 viewBox="0 0 640 480" style="enable-background:new 0 0 640 480;" xml:space="preserve">
<style type="text/css">
	.st0{fill:url(#SVGID_1_);}
	.st1{fill:url(#SVGID_00000150072669239002223920000017891760147577309829_);}
	.st2{fill:url(#SVGID_00000127030829410975207550000000616042873222955692_);}
	.st3{fill:url(#SVGID_00000119101967991068032610000014769441737160120761_);}
	.st4{fill:#1B3E7B;}
	.st5{fill:#12A4CF;}
</style>
<g>
	<g>
		<linearGradient id="SVGID_1_" gradientUnits="userSpaceOnUse" x1="23.5428" y1="233.7249" x2="142.2918" y2="233.7249">
			<stop  offset="0" style="stop-color:#0F7EB6"/>
			<stop  offset="1" style="stop-color:#12A4CF"/>
		</linearGradient>
		<path class="st0" d="M118,280.98c12.03-28.93,35.46-58.77,18.11-90.49v0c-20.3-38.87-70.44-32.36-90.27-82.34
			c0.18,0.45-1.78,3.04-2.07,3.55c-0.7,1.24-1.38,2.49-2.05,3.75c-1.33,2.51-2.58,5.05-3.76,7.62c-2.35,5.12-4.42,10.37-6.19,15.69
			c-3.54,10.63-5.92,21.59-7.18,32.67c-1.25,11.08-1.38,22.27-0.42,33.38c0.96,11.11,3.01,22.14,6.11,32.89
			c3.1,10.74,7.25,21.21,12.42,31.2c5.16,9.98,11.35,19.5,18.49,28.32c3.58,4.42,7.4,8.66,11.46,12.7c4.28,4.27,8.94,8,13.48,11.98
			c10.53,9.23,18.53,21.74,24.28,34.1c0.5,1.08,1.08,2.18,1.45,3.31l0.04-0.05c-0.23-0.68-0.45-1.37-0.64-2.06
			C104.55,332.52,108.26,304.41,118,280.98z"/>
		
			<radialGradient id="SVGID_00000093175704310953861280000007293597856043499154_" cx="-116.2049" cy="467.6552" r="370.3852" gradientTransform="matrix(0.894 0 0 0.8858 69.0887 44.4084)" gradientUnits="userSpaceOnUse">
			<stop  offset="0" style="stop-color:#172C64"/>
			<stop  offset="1" style="stop-color:#1D5293"/>
		</radialGradient>
		<path style="fill:url(#SVGID_00000093175704310953861280000007293597856043499154_);" d="M211.23,208.25
			c-2.74-11.67-7.59-22.81-15.01-32.78c-12.7-17.06-42.75-40.93-66.69-37.85c11.06,15.71,20.01,34.82,6.59,52.86
			c17.35,31.72-6.09,61.57-18.11,90.49c-9.74,23.43-13.45,51.54-6.73,76.22c0.33,1.2,0.74,2.38,1.16,3.56
			c1.34,3.78,2.26,8.55,2.08,11.1c7.2-2.8,16.62-7.01,26.9-13.33c29.73-18.28,53.73-46.59,64.64-78.57
			C213.74,257.39,216.75,231.74,211.23,208.25z"/>
		
			<radialGradient id="SVGID_00000148637032954680415770000001584881245117993888_" cx="123.0536" cy="206.6037" r="76.034" gradientTransform="matrix(0.894 0 0 0.8858 69.0887 44.4084)" gradientUnits="userSpaceOnUse">
			<stop  offset="0" style="stop-color:#0F7EB6"/>
			<stop  offset="1" style="stop-color:#12A4CF"/>
		</radialGradient>
		<path style="fill:url(#SVGID_00000148637032954680415770000001584881245117993888_);" d="M211.23,208.25
			c-2.74-11.67-7.59-22.81-15.01-32.78c-10.21-13.71-31.62-31.81-52.06-36.79c12.29,8.42,25.72,20.08,37.43,36.06
			c6.02,8.21,14.93,20.6,20.34,39.18c8.19,28.13,2.97,51.95,0.49,62.63c-3.21,13.85-8.27,25.43-15.28,39.59
			c8.07-11.2,14.53-23.4,18.89-36.18C213.74,257.39,216.75,231.74,211.23,208.25z"/>
		
			<radialGradient id="SVGID_00000017511466868437686040000011925184690803605933_" cx="22.6983" cy="145.4374" r="66.7138" gradientTransform="matrix(0.894 0 0 0.8858 69.0887 44.4084)" gradientUnits="userSpaceOnUse">
			<stop  offset="0" style="stop-color:#0F7EB6"/>
			<stop  offset="1" style="stop-color:#12A4CF"/>
		</radialGradient>
		<path style="fill:url(#SVGID_00000017511466868437686040000011925184690803605933_);" d="M136.11,190.49L136.11,190.49
			c-20.3-38.87-70.44-32.36-90.27-82.34c0.18,0.45-1.78,3.04-2.07,3.55c-0.7,1.24-1.38,2.49-2.05,3.75
			c-1.33,2.51-2.58,5.05-3.76,7.62c-0.51,1.12-1.01,2.24-1.49,3.37c9.14,12.4,21.57,25.29,38.49,35.55
			c12.47,7.56,18.96,8.6,28.44,15.55c12.63,9.26,26.87,26.32,34.13,60.78C143.15,222.78,145.08,206.89,136.11,190.49z"/>
	</g>
	<g>
		<g>
			<path class="st4" d="M328.18,199.92v108.3h-18.74v-44.87H264v44.87h-18.74v-108.3H264v44.87h45.44v-44.87H328.18z"/>
		</g>
		<path class="st5" d="M348.48,199.92L348.48,199.92c5.18,0,9.37,4.16,9.37,9.28v0c0,5.13-4.19,9.28-9.37,9.28h0
			c-5.17,0-9.37-4.16-9.37-9.28v0C339.11,204.08,343.31,199.92,348.48,199.92z"/>
		<g>
			<rect x="339.11" y="230.87" class="st4" width="18.74" height="77.36"/>
		</g>
		<g>
			<path class="st4" d="M448.74,199.77v108.46H430v-38.68c0-6.29-2.19-11.55-6.56-15.78c-4.37-4.33-9.63-6.5-15.77-6.5
				c-6.25,0-11.56,2.17-15.93,6.5c-4.37,4.33-6.56,9.59-6.56,15.78c0,6.09,2.19,11.29,6.56,15.63c2.08,2.17,4.5,3.79,7.26,4.87
				c2.76,1.08,5.65,1.63,8.67,1.63c3.02,0,5.78-0.52,8.28-1.55l6.72,16.55c-4.79,2.37-10.31,3.56-16.55,3.56
				c-5.73,0-11.01-1.06-15.85-3.17c-4.84-2.11-9.03-5.03-12.57-8.74c-3.54-3.71-6.3-8.05-8.28-13c-1.98-4.95-2.97-10.21-2.97-15.78
				c0-5.67,0.99-10.98,2.97-15.94c1.98-4.95,4.74-9.28,8.28-13c3.54-3.71,7.73-6.63,12.57-8.74c4.84-2.11,10.12-3.17,15.85-3.17
				c5,0,9.47,0.77,13.43,2.32c3.96,1.55,7.44,3.51,10.46,5.88v-37.13H448.74z"/>
		</g>
		<g>
			<path class="st4" d="M498.55,228.7c5.72,0,11.09,1.06,16.08,3.17c5,2.11,9.37,5.03,13.12,8.74c3.75,3.71,6.69,8.05,8.82,13
				c2.13,4.95,3.2,10.27,3.2,15.94c0,5.57-1.07,10.83-3.2,15.78c-2.14,4.95-5.08,9.28-8.82,13c-3.75,3.71-8.12,6.63-13.12,8.74
				c-5,2.11-10.36,3.17-16.08,3.17c-5.73,0-11.09-1.06-16.09-3.17c-5-2.11-9.37-5.03-13.12-8.74c-3.75-3.71-6.69-8.05-8.82-13
				c-2.13-4.95-3.2-10.21-3.2-15.78c0-5.67,1.07-10.98,3.2-15.94c2.13-4.95,5.08-9.28,8.82-13c3.75-3.71,8.12-6.63,13.12-8.74
				C487.47,229.76,492.83,228.7,498.55,228.7z M498.55,247.27c-6.25,0-11.56,2.17-15.93,6.5c-4.37,4.33-6.56,9.59-6.56,15.78
				c0,6.09,2.19,11.29,6.56,15.63c2.08,2.17,4.5,3.79,7.26,4.87c2.76,1.08,5.65,1.63,8.67,1.63c3.02,0,5.88-0.54,8.59-1.63
				c2.71-1.08,5.15-2.71,7.34-4.87c4.37-4.33,6.56-9.54,6.56-15.63c0-6.19-2.19-11.45-6.56-15.78
				C509.9,249.43,504.59,247.27,498.55,247.27z"/>
		</g>
		<g>
			<path class="st4" d="M616.46,298.32c-3.75,3.71-8.12,6.63-13.12,8.74c-5,2.11-10.36,3.17-16.08,3.17
				c-5.73,0-11.09-1.06-16.09-3.17c-5-2.11-9.37-5.03-13.12-8.74c-3.75-3.71-6.69-8.05-8.82-13c-2.13-4.95-3.2-10.21-3.2-15.78
				c0-5.67,1.07-10.98,3.2-15.94c2.13-4.95,5.08-9.28,8.82-13c3.75-3.71,8.12-6.63,13.12-8.74c5-2.11,10.36-3.17,16.09-3.17
				c5.72,0,11.09,1.06,16.08,3.17c5,2.11,9.37,5.03,13.12,8.74l-13.27,13.15c-4.37-4.33-9.68-6.5-15.93-6.5
				c-6.04,0-11.35,2.17-15.93,6.5c-4.37,4.33-6.56,9.59-6.56,15.78c0,6.09,2.19,11.29,6.56,15.63c2.19,2.17,4.63,3.79,7.34,4.87
				c2.71,1.08,5.57,1.63,8.59,1.63c6.35,0,11.66-2.17,15.93-6.5L616.46,298.32z"/>
		</g>
	</g>
	<g>
		<path class="st4" d="M264.76,347.66c-3.74-1.07-7.61-2.17-7.61-5.19v-0.11c0-2.74,2.53-4.65,6.16-4.65c2.76,0,5.76,0.97,8.44,2.72
			l0.11,0.07l1.55-2.42l-0.11-0.07c-2.83-1.87-6.62-3.03-9.89-3.03c-5.44,0-9.24,3.17-9.24,7.71v0.11c0,4.9,4.97,6.33,9.36,7.58
			l0.23,0.07c3.95,1.1,7.23,2.27,7.23,5.36v0.11c0,2.99-2.69,5.08-6.54,5.08c-3.42,0-6.73-1.2-9.85-3.57l-0.11-0.08l-1.73,2.3
			l0.1,0.08c3.01,2.43,7.5,4.01,11.42,4.01c5.61,0,9.68-3.42,9.68-8.14v-0.11C273.97,350.62,269.42,348.95,264.76,347.66z"/>
		<path class="st4" d="M292.33,335.08c-4.15,0-7.32,1.2-9.87,2.38l-0.11,0.05l1.08,2.56l0.13-0.06c2.95-1.49,5.69-2.19,8.62-2.19
			c5.79,0,8.98,2.93,8.98,8.25v1.01c-2.31-0.6-5.01-1.14-9.03-1.14c-7.54,0-12.23,3.47-12.23,9.05v0.11c0,2.67,1.2,4.93,3.46,6.54
			c1.96,1.39,4.64,2.19,7.35,2.19c5.68,0,8.92-2.96,10.45-4.95v4.3h2.86v-17.22C304.01,339.04,299.75,335.08,292.33,335.08z
			 M282.97,354.82c0-3.86,3.44-6.26,8.98-6.26c3.92,0,7,0.64,9.25,1.21v3.02c0,4.74-4.44,8.31-10.34,8.31c-3.92,0-7.9-2.11-7.9-6.16
			V354.82z"/>
		<rect x="313.67" y="323.69" class="st4" width="2.92" height="39.49"/>
		<path class="st4" d="M347.3,351.49c0,5.5-4.07,9.65-9.47,9.65c-5.34,0-8.66-3.53-8.66-9.22v-16.41h-2.92v16.9
			c0,6.93,4.39,11.41,11.19,11.41c4.33,0,7.64-1.82,9.85-5.4v4.76h2.92v-27.66h-2.92V351.49z"/>
		<path class="st4" d="M383.09,341.12c-2.88-4.15-6.66-6.26-11.26-6.26c-6.68,0-13.58,5.41-13.58,14.48v0.11
			c0,5.32,2.32,8.68,4.26,10.56c2.51,2.42,5.9,3.81,9.32,3.81c4.57,0,8.26-2.12,11.26-6.47v5.83h2.92v-39.49h-2.92V341.12z
			 M383.25,349.29v0.11c0,7.19-5.79,11.64-11.15,11.64c-6.11,0-10.72-5.03-10.72-11.69v-0.11c0-6.82,4.41-11.58,10.72-11.58
			C378.99,337.65,383.25,343.69,383.25,349.29z"/>
		<path class="st4" d="M423.46,334.86c-7.43,0-13.26,6.33-13.26,14.42v0.11c0,8.22,5.89,14.42,13.69,14.42
			c4.67,0,8.12-1.56,11.54-5.2l0.09-0.1l-2.04-1.78l-0.09,0.09c-2.73,2.9-5.72,4.26-9.39,4.26c-5.82,0-10.2-4.33-10.71-10.54h22.92
			l0.01-0.11c0.06-0.44,0.06-0.61,0.06-0.98v-0.11C436.28,340.82,431,334.86,423.46,334.86z M413.29,347.92
			c0.54-6.02,4.75-10.38,10.05-10.38c6.63,0,9.41,5.56,9.78,10.38H413.29z"/>
		<path class="st4" d="M456.54,334.86c-4.33,0-7.64,1.82-9.85,5.4v-4.76h-2.92v27.66h2.92v-15.98c0-5.5,4.07-9.65,9.47-9.65
			c5.34,0,8.66,3.53,8.66,9.22v16.41h2.92v-16.9C467.73,339.34,463.34,334.86,456.54,334.86z"/>
		<rect x="493.66" y="323.69" class="st4" width="2.92" height="39.49"/>
		<rect x="507.16" y="335.51" class="st4" width="2.92" height="27.66"/>
		<polygon class="st4" points="507.45,331 507.32,331.2 509.89,331.2 515.87,325.5 512.29,323.76 		"/>
		<path class="st4" d="M533.05,334.86c-4.33,0-7.64,1.82-9.85,5.4v-4.76h-2.92v27.66h2.92v-15.98c0-5.5,4.07-9.65,9.47-9.65
			c5.34,0,8.66,3.53,8.66,9.22v16.41h2.92v-16.9C544.25,339.34,539.85,334.86,533.05,334.86z"/>
		<path class="st4" d="M564.88,334.86c-7.43,0-13.26,6.33-13.26,14.42v0.11c0,8.22,5.89,14.42,13.69,14.42
			c4.67,0,8.12-1.56,11.54-5.2l0.09-0.1l-2.04-1.78l-0.09,0.09c-2.73,2.9-5.72,4.26-9.39,4.26c-5.82,0-10.2-4.33-10.71-10.54h22.92
			l0.01-0.11c0.06-0.44,0.06-0.61,0.06-0.98v-0.11C577.71,340.82,572.43,334.86,564.88,334.86z M554.72,347.92
			c0.54-6.02,4.75-10.38,10.05-10.38c6.63,0,9.41,5.56,9.78,10.38H554.72z"/>
		<path class="st4" d="M595.36,335.08c-4.15,0-7.32,1.2-9.87,2.38l-0.11,0.05l1.08,2.56l0.13-0.06c2.95-1.49,5.69-2.19,8.62-2.19
			c5.79,0,8.98,2.93,8.98,8.25v1.01c-2.31-0.6-5.01-1.14-9.03-1.14c-7.54,0-12.23,3.47-12.23,9.05v0.11c0,2.67,1.2,4.93,3.46,6.54
			c1.96,1.39,4.64,2.19,7.35,2.19c5.68,0,8.92-2.96,10.45-4.95v4.3h2.86v-17.22C607.04,339.04,602.79,335.08,595.36,335.08z
			 M586,354.82c0-3.86,3.44-6.26,8.98-6.26c3.92,0,7,0.64,9.25,1.21v3.02c0,4.74-4.44,8.31-10.34,8.31c-3.92,0-7.9-2.11-7.9-6.16
			V354.82z"/>
	</g>
</g>
</svg>
