<svg width="76" height="76" viewBox="0 0 76 76" fill="none" xmlns="http://www.w3.org/2000/svg">
<g id="Group ">
<circle id="Ellipse 179" cx="38" cy="38" r="38" fill="#02A8D7" fill-opacity="0.3"/>
<g id="Group">
<path id="Vector" d="M45.9398 24.7743C45.6635 24.2967 45.1493 24 44.5979 24H38.8354V30.8163H49.4343L45.9398 24.7743Z" fill="#02A8D7"/>
<path id="Vector_2" d="M37.2207 24H31.4038C30.8513 24 30.3372 24.2972 30.0609 24.7759L26.5792 30.8163H37.2207V24H37.2207Z" fill="#02A8D7"/>
<path id="Vector_3" d="M26 32.4316V49.6595C26 50.7068 26.8524 51.5586 27.8997 51.5586H48.1003C49.1476 51.5586 50 50.7068 50 49.6595V32.4316H26ZM41.6663 39.6765L37.489 43.8539C37.3312 44.0116 37.1244 44.0908 36.9177 44.0908C36.7109 44.0908 36.5041 44.0116 36.3469 43.8539L34.3886 41.896C34.0736 41.581 34.0736 41.0695 34.3886 40.754C34.7041 40.4384 35.2157 40.4384 35.5312 40.754L36.9177 42.141L40.5243 38.5345C40.8398 38.2189 41.3514 38.2189 41.6664 38.5345C41.9819 38.85 41.9819 39.361 41.6663 39.6765Z" fill="#02A8D7"/>
</g>
</g>
</svg>
