<svg width="76" height="76" viewBox="0 0 76 76" fill="none" xmlns="http://www.w3.org/2000/svg">
<g id="Group ">
<circle id="Ellipse 179" cx="38" cy="38" r="38" fill="#02A8D7" fill-opacity="0.3"/>
<g id="Group">
<path id="Vector" d="M46.4645 35.0717C49.5169 35.0717 52.0002 32.5884 52.0002 29.5361C52.0002 26.4837 49.5169 24.0004 46.4645 24.0004C43.4121 24.0004 40.9289 26.4837 40.9289 29.536C40.9289 32.5883 43.4122 35.0717 46.4645 35.0717ZM44.1036 28.5313L45.564 29.9917L48.6548 26.901L49.8148 28.0611L45.564 32.3119L42.9435 29.6914L44.1036 28.5313Z" fill="#02A8D7"/>
<path id="Vector_2" d="M30.4688 44.4688H48.1565L48.9775 36.2579C48.1951 36.5513 47.3484 36.7123 46.4648 36.7123C42.5078 36.7123 39.2885 33.493 39.2885 29.536C39.2885 28.9253 39.3654 28.3321 39.5097 27.7656H29.7049L29.3283 24H24V25.6406H27.8435L29.5775 42.9798C28.5236 43.349 27.7656 44.353 27.7656 45.5312C27.7656 47.0217 28.9783 48.2343 30.4688 48.2343H31.738C31.5979 48.5606 31.5201 48.9198 31.5201 49.2969C31.5201 50.7874 32.7327 52 34.2232 52C35.7137 52 36.9263 50.7874 36.9263 49.2969C36.9263 48.9198 36.8485 48.5607 36.7084 48.2343H41.1745C41.0344 48.5606 40.9566 48.9198 40.9566 49.2969C40.9566 50.7874 42.1693 52 43.6598 52C45.1503 52 46.3629 50.7874 46.3629 49.2969C46.3629 48.9198 46.2851 48.5607 46.145 48.2343H48.1563V46.5937H30.4688C29.8829 46.5937 29.4062 46.1171 29.4062 45.5312C29.4062 44.9454 29.8829 44.4688 30.4688 44.4688ZM41.8979 39.0625H43.5385V40.7031H41.8979V39.0625ZM38.1211 39.0625H39.7618V40.7031H38.1211V39.0625ZM34.3442 39.0625H35.9849V40.7031H34.3442V39.0625Z" fill="#02A8D7"/>
</g>
</g>
</svg>
