<svg width="76" height="76" viewBox="0 0 76 76" fill="none" xmlns="http://www.w3.org/2000/svg">
<g id="Group ">
<circle id="Ellipse 179" cx="38" cy="38" r="38" fill="#02A8D7" fill-opacity="0.3"/>
<g id="Group">
<path id="Vector" d="M51.9091 33.3622V31.9432C51.9091 30.3177 50.5914 29 48.9659 29H27.9432C26.3177 29 25 30.3177 25 31.9432V33.3622C25 33.5073 25.1177 33.625 25.2628 33.625H51.6463C51.7914 33.625 51.9091 33.5073 51.9091 33.3622Z" fill="#02A8D7"/>
<path id="Vector_2" d="M25 35.5697V44.5569C25 46.1824 26.3177 47.5001 27.9432 47.5001H48.9659C50.5914 47.5001 51.9091 46.1824 51.9091 44.5569V35.5697C51.9091 35.4246 51.7914 35.3069 51.6463 35.3069H25.2628C25.1177 35.3069 25 35.4246 25 35.5697ZM31.7273 42.4546C31.7273 42.919 31.3508 43.2955 30.8864 43.2955H30.0455C29.5811 43.2955 29.2045 42.919 29.2045 42.4546V41.6137C29.2045 41.1493 29.5811 40.7728 30.0455 40.7728H30.8864C31.3508 40.7728 31.7273 41.1493 31.7273 41.6137V42.4546Z" fill="#02A8D7"/>
</g>
</g>
</svg>
