<svg width="28" height="52" viewBox="0 0 28 52" fill="none" xmlns="http://www.w3.org/2000/svg">
<g id="Group">
<path id="Vector" fill-rule="evenodd" clip-rule="evenodd" d="M5.50315e-06 3.93911C-0.00351505 1.7859 1.68258 0.0375245 3.76574 0.0340026L23.8482 5.3681e-06C25.9315 -0.00352948 27.623 1.73914 27.6264 3.89234L27.6964 48.0608C27.6998 50.2141 26.0139 51.9624 23.9306 51.9659L3.8481 52C1.76493 52.0035 0.0733086 50.2609 0.0699138 48.1076L5.50315e-06 3.93911ZM2.51355 5.23432C2.51129 3.79885 3.63523 2.63326 5.02408 2.63091L22.5982 2.60116C23.987 2.59881 25.1147 3.76058 25.117 5.19605L25.1726 40.2715C25.1748 41.7068 24.0509 42.8724 22.6621 42.8748L5.08796 42.9045C3.6991 42.9069 2.57139 41.7452 2.56913 40.3097L2.51355 5.23432ZM13.8853 49.3846C15.2724 49.3823 16.395 48.2171 16.3927 46.7821C16.3904 45.3471 15.2641 44.1856 13.877 44.188C12.49 44.1903 11.3674 45.3555 11.3696 46.7905C11.3719 48.2255 12.4982 49.3869 13.8853 49.3846Z" fill="white"/>
<path id="Vector_2" d="M12.8573 30.6254C10.8597 28.9154 9.21695 27.5092 8.07126 26.1869C6.92783 24.8671 6.29942 23.6532 6.29841 22.3304C6.29678 20.178 8.08119 18.4878 10.3576 18.4858C11.6453 18.4848 12.8847 19.0514 13.6933 19.9479L13.8407 20.1112L13.9878 19.9476C14.795 19.0498 16.0335 18.481 17.3213 18.48C19.5975 18.478 21.3847 20.1651 21.3865 22.3176C21.3875 23.6403 20.7612 24.8554 19.6198 26.178C18.48 27.4987 16.847 28.9043 14.8613 30.6135L14.8413 30.6306L13.8502 31.4787L12.8573 30.6254Z" fill="white"/>
</g>
</svg>
