<svg width="68" height="49" viewBox="0 0 68 49" fill="none" xmlns="http://www.w3.org/2000/svg">
<g id="&#240;&#159;&#166;&#134; icon &#34;Mobile Clinic&#34;">
<g id="Group">
<path id="Vector" fill-rule="evenodd" clip-rule="evenodd" d="M0 5.25C0 2.35043 2.27412 0 5.07938 0H42.3281C45.1335 0 47.4075 2.35043 47.4075 5.25V15.75H53.7025C54.9795 15.75 56.2095 16.2472 57.1479 17.1423L66.0908 25.6748C67.1326 26.6686 67.725 28.0672 67.725 29.5325V43.75H60.9525V40.25H64.3388V29.5325C64.3388 29.0441 64.1413 28.5779 63.7941 28.2466L54.851 19.7141C54.5383 19.4157 54.1282 19.25 53.7025 19.25H47.4075V40.25H50.7938V43.75H32.1694V40.25H44.0213V5.25C44.0213 4.28348 43.2632 3.5 42.3281 3.5H5.07938C4.1443 3.5 3.38625 4.28348 3.38625 5.25V40.25H8.46562V43.75H0V5.25ZM16.9312 40.25H22.0106V43.75H16.9312V40.25Z" fill="white"/>
<path id="Vector_2" fill-rule="evenodd" clip-rule="evenodd" d="M11.8519 45.5C13.7221 45.5 15.2381 43.9331 15.2381 42C15.2381 40.0669 13.7221 38.5 11.8519 38.5C9.9817 38.5 8.46562 40.0669 8.46562 42C8.46562 43.9331 9.9817 45.5 11.8519 45.5ZM11.8519 49C15.5922 49 18.6244 45.8659 18.6244 42C18.6244 38.1341 15.5922 35 11.8519 35C8.11152 35 5.07937 38.1341 5.07937 42C5.07937 45.8659 8.11152 49 11.8519 49Z" fill="white"/>
<path id="Vector_3" fill-rule="evenodd" clip-rule="evenodd" d="M27.09 45.5C28.9602 45.5 30.4763 43.9331 30.4763 42C30.4763 40.0669 28.9602 38.5 27.09 38.5C25.2198 38.5 23.7038 40.0669 23.7038 42C23.7038 43.9331 25.2198 45.5 27.09 45.5ZM27.09 49C30.8303 49 33.8625 45.8659 33.8625 42C33.8625 38.1341 30.8303 35 27.09 35C23.3497 35 20.3175 38.1341 20.3175 42C20.3175 45.8659 23.3497 49 27.09 49Z" fill="white"/>
<path id="Vector_4" fill-rule="evenodd" clip-rule="evenodd" d="M55.8731 45.5C57.7433 45.5 59.2594 43.9331 59.2594 42C59.2594 40.0669 57.7433 38.5 55.8731 38.5C54.0029 38.5 52.4869 40.0669 52.4869 42C52.4869 43.9331 54.0029 45.5 55.8731 45.5ZM55.8731 49C59.6134 49 62.6456 45.8659 62.6456 42C62.6456 38.1341 59.6134 35 55.8731 35C52.1328 35 49.1006 38.1341 49.1006 42C49.1006 45.8659 52.1328 49 55.8731 49Z" fill="white"/>
<path id="Vector_5" fill-rule="evenodd" clip-rule="evenodd" d="M66.0319 31.5001H1.69313V28.0001H66.0319V31.5001Z" fill="white"/>
<path id="Vector_6" fill-rule="evenodd" clip-rule="evenodd" d="M23.7038 7C24.6389 7 25.3969 7.78348 25.3969 8.75V22.75C25.3969 23.7165 24.6389 24.5 23.7038 24.5C22.7686 24.5 22.0106 23.7165 22.0106 22.75V8.75C22.0106 7.78348 22.7686 7 23.7038 7Z" fill="white"/>
<path id="Vector_7" fill-rule="evenodd" clip-rule="evenodd" d="M15.2381 15.75C15.2381 14.7835 15.9961 14 16.9312 14H30.4762C31.4114 14 32.1694 14.7835 32.1694 15.75C32.1694 16.7165 31.4114 17.5 30.4762 17.5H16.9312C15.9961 17.5 15.2381 16.7165 15.2381 15.75Z" fill="white"/>
</g>
</g>
</svg>
