<svg width="50" height="50" viewBox="0 0 48 52" fill="none" xmlns="http://www.w3.org/2000/svg">
<g id="&#240;&#159;&#166;&#134; icon &#34;Microscope&#34;">
<path id="Vector" fill-rule="evenodd" clip-rule="evenodd" d="M17.9063 3.16985L19.9956 1.94111L21.3705 4.40238C23.2279 3.77389 25.3255 4.54847 26.3454 6.36124L32.6859 17.6301C33.8536 19.7055 33.1665 22.3558 31.1514 23.5497L29.9618 24.2545L30.9111 26.1507L27.1624 28.1247L26.3085 26.4188L25.3731 26.9729C23.3579 28.1667 20.7776 27.4522 19.6099 25.3768L15.5137 18.0967C11.9207 20.2327 9.4429 22.6178 8.11387 25.3453C6.99526 27.6409 6.62753 30.3096 7.24635 33.5137C9.25406 32.3665 11.5629 31.7135 14.0194 31.7135C18.6033 31.7135 22.6734 33.9874 25.2314 37.5034L42.1754 27.6339L43.5672 30.1497L26.6848 39.9832C27.5529 41.8681 28.0388 43.9773 28.0388 46.2039C28.0388 47.1963 27.9422 48.1656 27.7584 49.1019H46.264C47.0383 49.1019 47.666 49.7507 47.666 50.551C47.666 51.3513 47.0383 52 46.264 52H1.16654C0.416236 50.2251 0 48.2647 0 46.2039C0 41.8634 1.84637 37.9687 4.77164 35.3129C3.70419 31.071 4.00747 27.3299 5.60958 24.0418C7.2713 20.6315 10.2443 17.8882 14.1042 15.5914L13.2694 14.1078C12.3721 12.5133 12.5699 10.5792 13.6238 9.22729L12.1359 6.56353L14.2504 5.32L12.5104 2.09238L16.1975 0L17.9063 3.16985ZM30.2533 19.0713L23.9127 7.80231C23.5236 7.11054 22.6635 6.87232 21.9917 7.27037L16.2136 10.6936C15.5418 11.0915 15.3128 11.9749 15.702 12.6667L22.0426 23.9356C22.4317 24.6275 23.2918 24.8657 23.9636 24.4676L29.7417 21.0444C30.4135 20.6465 30.6425 19.7631 30.2533 19.0713ZM24.8823 49.1019C25.1122 48.1775 25.2349 47.2069 25.2349 46.2039C25.2349 44.4944 24.877 42.8715 24.2342 41.4106L17.4993 45.3336L16.1076 42.8178L22.7619 38.9417C20.7062 36.3013 17.5537 34.6116 14.0194 34.6116C7.82521 34.6116 2.80388 39.8016 2.80388 46.2039C2.80388 47.2069 2.92651 48.1775 3.15651 49.1019H24.8823Z" fill="white"/>
</g>
</svg>
