<svg width="50" height="50" viewBox="0 0 57 52" fill="none" xmlns="http://www.w3.org/2000/svg">
<path id="Vector" d="M9.92173 5.77778C11.6336 5.77778 13.0213 4.48438 13.0213 2.88889C13.0213 1.2934 11.6336 0 9.92173 0C8.77442 0 7.77279 0.580956 7.23688 1.44444H6.82215C4.25438 1.44444 2.17277 3.38455 2.17277 5.77778V18.7778C1.31689 18.7778 0.615714 19.4259 0.69339 20.2203C1.0537 23.9054 2.786 27.3751 5.6162 30.013C7.69158 31.9472 10.2469 33.3313 13.0213 34.0643V37.5556C13.0213 39.4426 14.3154 41.0478 16.1215 41.6425C16.1875 47.3733 21.1926 52 27.3569 52C33.5624 52 38.5929 47.3115 38.5929 41.5278V35.75C38.5929 32.7584 41.1948 30.3333 44.4046 30.3333C47.6144 30.3333 50.2163 32.7584 50.2163 35.75V39.2466C48.4105 39.8414 47.1167 41.4466 47.1167 43.3333C47.1167 45.7266 49.1983 47.6667 51.7661 47.6667C54.334 47.6667 56.4155 45.7266 56.4155 43.3333C56.4155 41.4466 55.1217 39.8414 53.3159 39.2466V35.75C53.3159 31.163 49.3261 27.4444 44.4046 27.4444C39.4831 27.4444 35.4933 31.163 35.4933 35.75V41.5278C35.4933 45.7159 31.8505 49.1111 27.3569 49.1111C22.9042 49.1111 19.287 45.7775 19.2214 41.642C21.0268 41.0469 22.3201 39.442 22.3201 37.5556V34.0643C25.0945 33.3313 27.65 31.9472 29.7253 30.013C32.5555 27.3751 34.2877 23.9054 34.648 20.2203C34.7258 19.4259 34.0246 18.7778 33.1686 18.7778V5.77778C33.1686 3.38455 31.0871 1.44444 28.5192 1.44444H28.1045C27.5686 0.580956 26.567 0 25.4197 0C23.7078 0 22.3201 1.2934 22.3201 2.88889C22.3201 4.48438 23.7078 5.77778 25.4197 5.77778C26.567 5.77778 27.5686 5.19682 28.1045 4.33333H28.5192C29.3752 4.33333 30.069 4.98004 30.069 5.77778V18.7778H30.3937C29.5378 18.7778 28.8549 19.4276 28.7367 20.2177C28.4027 22.4475 27.2991 24.531 25.5714 26.1414C23.4759 28.0943 20.6341 29.1915 17.6707 29.1915C14.7075 29.1915 11.8655 28.0943 9.77016 26.1414C8.0423 24.531 6.93885 22.4475 6.60487 20.2177C6.48653 19.4276 5.80372 18.7778 4.94779 18.7778H5.27236V5.77778C5.27236 4.98004 5.96623 4.33333 6.82215 4.33333H7.23688C7.77279 5.19682 8.77442 5.77778 9.92173 5.77778Z" fill="white"/>
</svg>
