<svg width="50" height="50" viewBox="0 0 51 52" fill="none" xmlns="http://www.w3.org/2000/svg">
<g id="&#240;&#159;&#166;&#134; icon &#34;Hospital&#34;">
<g id="&#240;&#159;&#166;&#134; icon &#34;Brain&#34;">
<g id="Group">
<path id="Vector" fill-rule="evenodd" clip-rule="evenodd" d="M32.9324 24.3911C34.5513 24.3911 36.1327 23.9355 37.4697 23.0838C38.8273 23.9339 40.4295 24.3796 42.0643 24.3618L47.2575 22.5986C48.7209 21.473 49.7255 19.9125 50.1033 18.1786C50.4811 16.4445 50.2089 14.642 49.3325 13.0727C48.4562 11.5034 47.0287 10.2625 45.2891 9.55791C44.8918 7.87895 43.8913 6.37738 42.4535 5.30218L37.3841 3.64687H36.8134C35.6859 2.11181 33.9931 1.01683 32.0569 0.570106L21.1886 0C19.3819 0.140069 17.6784 0.84313 16.3521 1.99606C15.7254 1.8582 15.0839 1.78674 14.4401 1.78304C12.881 1.78603 11.3562 2.20999 10.0498 3.00375C8.74332 3.79749 7.71099 4.92711 7.07746 6.25629L2.94793 8.98565C1.92038 10.2846 1.36722 11.8573 1.36994 13.4719C1.35977 14.1469 1.45593 14.8198 1.65531 15.4688C0.571903 16.7806 -0.0106737 18.3925 0.000148088 20.0485C-0.00243518 21.9692 0.783941 23.8177 2.19752 25.2139C2.3116 26.5889 2.82657 27.9088 3.6867 29.0304C4.54683 30.1521 5.71936 31.0329 7.07746 31.5776C8.64223 32.4929 9.96724 33.7239 10.9549 35.1798C11.9427 36.636 12.568 38.2801 12.785 39.9914H16.5808V28.8159L12.8919 25.4268L10.3961 28.0067C9.85064 28.5702 8.9666 28.5702 8.42118 28.0067C7.8759 27.4431 7.8759 26.5292 8.42118 25.9656L11.3312 22.9578L10.4444 17.9169L6.49923 15.878C5.80942 15.5215 5.52984 14.6545 5.87477 13.9416C6.21968 13.2287 7.05833 12.9396 7.74814 13.2961L11.6116 15.2927L16.4454 12.1135L14.956 8.0087C14.6853 7.26239 15.0511 6.43049 15.7732 6.15049C16.4952 5.87064 17.3002 6.24878 17.571 6.9951L19.1595 11.3734H21.1129L22.0194 9.49946L20.6924 6.29915C20.3887 5.56652 20.717 4.71805 21.4258 4.40405C22.1347 4.09007 22.9557 4.42945 23.2594 5.1621L24.4125 7.94304L29.0201 8.80885C29.0459 8.78388 29.0728 8.75978 29.1009 8.73669L31.9572 6.37492C32.5594 5.87699 33.4382 5.97788 33.9199 6.60036C34.4016 7.2227 34.3039 8.13095 33.7018 8.62888L31.6468 10.3282L34.0614 13.5367L35.0079 11.5799C35.2445 11.091 35.7281 10.7821 36.2569 10.7821H39.6844C40.4556 10.7821 41.0807 11.4282 41.0807 12.2254C41.0807 13.0225 40.4556 13.6686 39.6844 13.6686H37.1199L36.5345 14.879L39.416 15.5407C39.5274 15.5664 39.6354 15.6059 39.7376 15.6588L42.0224 16.8396C42.7122 17.1961 42.9918 18.063 42.647 18.7759C42.3021 19.4889 41.4633 19.7778 40.7735 19.4214L38.6424 18.32L33.669 17.1777C33.3519 17.1048 33.0691 16.9199 32.8697 16.6549L29.1985 11.7762L24.6418 10.9199C24.5556 11.0029 24.4581 11.0755 24.3505 11.1351L23.3722 13.1574V14.3246H25.4033C25.6202 14.3246 25.834 14.3768 26.0278 14.477L30.5978 16.8388C31.2875 17.1953 31.5672 18.0621 31.2223 18.7751C30.8774 19.488 30.0386 19.777 29.3488 19.4205L25.0737 17.2111H23.3722V19.9018C23.3722 20.6989 22.747 21.3451 21.9758 21.3451C21.2046 21.3451 20.5795 20.6989 20.5795 19.9018V14.2599H18.3838L13.2353 17.6463L14.1237 22.6964L18.9049 27.089C19.2029 27.363 19.3736 27.7555 19.3736 28.1677V39.9914H23.447V32.0035C23.4451 30.5853 23.8692 29.1949 24.6712 27.9901C25.4732 26.7854 26.621 25.8143 27.9845 25.1872C28.7513 24.9136 28.9399 24.5451 29.171 24.0937C29.325 23.7927 29.498 23.455 29.8734 23.0838C30.1996 23.2915 30.4522 23.4758 30.6714 23.6354C31.3509 24.1306 31.7082 24.3911 32.9324 24.3911Z" fill="white"/>
<path id="Vector_2" fill-rule="evenodd" clip-rule="evenodd" d="M23.7382 46.227H12.5673V43.3405H23.7382V46.227Z" fill="white"/>
<path id="Vector_3" fill-rule="evenodd" clip-rule="evenodd" d="M23.7382 52.0001H12.5673V49.1135H23.7382V52.0001Z" fill="white"/>
</g>
</g>
</g>
</svg>
