<svg width="50" height="50" viewBox="0 0 48 52" fill="none" xmlns="http://www.w3.org/2000/svg">
<g id="&#240;&#159;&#166;&#134; icon &#34;Hospital&#34;">
<g id="Group">
<path id="Vector" d="M16.3507 25.9999V20.7999H11.3197V25.9999H16.3507Z" fill="white"/>
<path id="Vector_2" d="M16.3507 28.6001V33.8001H11.3197V28.6001H16.3507Z" fill="white"/>
<path id="Vector_3" d="M26.4127 25.9999V20.7999H21.3817V25.9999H26.4127Z" fill="white"/>
<path id="Vector_4" d="M26.4127 28.6001V33.8001H21.3817V28.6001H26.4127Z" fill="white"/>
<path id="Vector_5" d="M36.4748 25.9999V20.7999H31.4438V25.9999H36.4748Z" fill="white"/>
<path id="Vector_6" d="M36.4748 28.6001V33.8001H31.4438V28.6001H36.4748Z" fill="white"/>
<path id="Vector_7" fill-rule="evenodd" clip-rule="evenodd" d="M18.8662 0H28.9282C31.0122 0 32.7015 1.74609 32.7015 3.9V13H38.9902C41.0742 13 42.7635 14.746 42.7635 16.9V49.4H47.7945V52H0V49.4H5.031V16.9C5.031 14.746 6.72028 13 8.80425 13H15.093V3.9C15.093 1.74609 16.7823 0 18.8662 0ZM7.5465 49.4H18.8662V41.6C18.8662 38.7282 21.1188 36.4 23.8972 36.4C26.6757 36.4 28.9282 38.7282 28.9282 41.6V49.4H40.248V16.9C40.248 16.182 39.6849 15.6 38.9902 15.6H32.4868C31.9689 17.1148 30.5711 18.2 28.9282 18.2H18.8662C17.2234 18.2 15.8256 17.1148 15.3077 15.6H8.80425C8.10959 15.6 7.5465 16.182 7.5465 16.9V49.4ZM25.155 5.2C25.155 4.48204 24.5919 3.9 23.8972 3.9C23.2026 3.9 22.6395 4.48204 22.6395 5.2V7.8H20.124C19.4293 7.8 18.8662 8.38201 18.8662 9.1C18.8662 9.81799 19.4293 10.4 20.124 10.4H22.6395V13C22.6395 13.718 23.2026 14.3 23.8972 14.3C24.5919 14.3 25.155 13.718 25.155 13V10.4H27.6705C28.3652 10.4 28.9282 9.81799 28.9282 9.1C28.9282 8.38201 28.3652 7.8 27.6705 7.8H25.155V5.2Z" fill="white"/>
</g>
</g>
</svg>
